<svg xmlns="http://www.w3.org/2000/svg" viewBox="0 0 512 512"><!--!Font Awesome Free 6.4.0 by @fontawesome - https://fontawesome.com License - https://fontawesome.com/license/free Copyright 2023 Fonticons, Inc.--><path fill="#c3924f" d="M128 176v24c0 14.28 10.63 26.13 24.6 27.69C173.3 231.5 192 254.3 192 280c0 30.9-25.1 56-56 56s-56-25.1-56-56c0-25.7 18.7-48.5 39.4-52.31C133.4 226.1 144 214.3 144 200v-24H64v24c0 14.28 10.63 26.13 24.6 27.69C109.3 231.5 128 254.3 128 280c0 48.6 39.4 88 88 88s88-39.4 88-88c0-25.7-18.7-48.5-39.4-52.31c-13.97-1.56-24.6-13.41-24.6-27.69v-24h138.8c4.3 21.6 23.3 38 46.2 38c26.5 0 48-21.5 48-48s-21.5-48-48-48c-22.9 0-41.9 16.4-46.2 38H171.8c-4.3-21.6-23.3-38-46.2-38c-26.5 0-48 21.5-48 48s21.5 48 48 48c22.9 0 41.9-16.4 46.2-38H128zM304 448H208c-8.8 0-16 7.2-16 16s7.2 16 16 16h96c8.8 0 16-7.2 16-16s-7.2-16-16-16zm-48-360c-13.3 0-24-10.7-24-24V32c0-17.7 14.3-32 32-32s32 14.3 32 32v32c0 13.3-10.7 24-24 24z"/></svg>
